<?xml version="1.0" encoding="utf-8"?>
<svg version="1.1" xmlns:xlink="http://www.w3.org/1999/xlink" width="144px" height="144px" xmlns="http://www.w3.org/2000/svg">
  <g transform="matrix(1 0 0 1 65 -90 )">
    <path d="M -65 90  L 79 90  L 79 234  L -65 234  L -65 90  " fill-rule="nonzero" fill="#cccccc" stroke="none" />
    <path d="M -55 100  L 69 100  L 69 224  L -55 224  L -55 100  " fill-rule="nonzero" fill="#ffffff" stroke="none" />
    <path d="M 20.679999999999993 133.2  C 14.631999999999994 133.2  9.879999999999995 128.44799999999998  9.879999999999995 122.39999999999999  C 9.879999999999995 116.35199999999999  14.631999999999994 111.6  20.679999999999993 111.6  C 26.727999999999994 111.6  31.479999999999993 116.35199999999999  31.479999999999993 122.39999999999999  C 31.479999999999993 128.44799999999998  26.727999999999994 133.2  20.679999999999993 133.2  " fill-rule="nonzero" fill="#cccccc" stroke="none" />
    <path d="M -52 221  L -52 156.64999999999998  L -22.75 127.39999999999999  L 18.200000000000003 150.8  L 41.60000000000001 144.95  L 65 150.8  L 65 221  L -52 221  " fill-rule="nonzero" fill="#169bd5" stroke="none" />
  </g>
</svg>