<?xml version="1.0" encoding="utf-8"?>
<svg version="1.1" xmlns:xlink="http://www.w3.org/1999/xlink" width="149px" height="148px" xmlns="http://www.w3.org/2000/svg">
  <g transform="matrix(1 0 0 1 57 -37 )">
    <path d="M -57 37  L 92 37  L 92 185  L -57 185  L -57 37  " fill-rule="nonzero" fill="#cccccc" stroke="none" />
    <path d="M -47 47  L 82 47  L 82 175  L -47 175  L -47 47  " fill-rule="nonzero" fill="#ffffff" stroke="none" />
    <path d="M 31.580000000000005 81.4  C 25.364000000000004 81.4  20.480000000000004 76.516  20.480000000000004 70.30000000000001  C 20.480000000000004 64.084  25.364000000000004 59.2  31.580000000000005 59.2  C 37.79600000000001 59.2  42.68000000000001 64.084  42.68000000000001 70.30000000000001  C 42.68000000000001 76.516  37.79600000000001 81.4  31.580000000000005 81.4  " fill-rule="nonzero" fill="#cccccc" stroke="none" />
    <path d="M -44 172  L -44 105.44999999999999  L -13.5 75.19999999999999  L 29.200000000000003 99.88724832214766  L 53.60000000000001 93.35  L 78 99.88724832214766  L 78 172  L -44 172  " fill-rule="nonzero" fill="#169bd5" stroke="none" />
  </g>
</svg>