<?xml version="1.0" encoding="utf-8"?>
<svg version="1.1" xmlns:xlink="http://www.w3.org/1999/xlink" width="149px" height="148px" xmlns="http://www.w3.org/2000/svg">
  <g transform="matrix(1 0 0 1 -353 -37 )">
    <path d="M 353 37  L 502 37  L 502 185  L 353 185  L 353 37  " fill-rule="nonzero" fill="#cccccc" stroke="none" />
    <path d="M 363 47  L 492 47  L 492 175  L 363 175  L 363 47  " fill-rule="nonzero" fill="#ffffff" stroke="none" />
    <path d="M 441.58000000000004 81.4  C 435.36400000000003 81.4  430.48 76.516  430.48 70.30000000000001  C 430.48 64.084  435.36400000000003 59.2  441.58000000000004 59.2  C 447.79600000000005 59.2  452.68 64.084  452.68 70.30000000000001  C 452.68 76.516  447.79600000000005 81.4  441.58000000000004 81.4  " fill-rule="nonzero" fill="#cccccc" stroke="none" />
    <path d="M 367 172  L 367 105.44999999999999  L 397.5 75.19999999999999  L 440.2 99.88724832214766  L 464.6 93.35  L 489 99.88724832214766  L 489 172  L 367 172  " fill-rule="nonzero" fill="#169bd5" stroke="none" />
  </g>
</svg>