<?xml version="1.0" encoding="utf-8"?>
<svg version="1.1" xmlns:xlink="http://www.w3.org/1999/xlink" width="50px" height="50px" xmlns="http://www.w3.org/2000/svg">
  <g transform="matrix(1 0 0 1 -1435 -19 )">
    <path d="M 41.66666666666667 14.285714285714285  C 41.66666666666667 17.020089285714285  40.80946180555556 19.549851190476186  39.09505208333333 21.875  C 40.115017361111114 22.135416666666664  41.08615451388889 22.488839285714285  42.00846354166667 22.935267857142854  C 42.93077256944445 23.38169642857143  43.896484375 24.06063988095238  44.90559895833333 24.972098214285715  C 45.91471354166667 25.883556547619047  46.77734375 26.957775297619047  47.49348958333333 28.194754464285715  C 48.20963541666667 29.43173363095238  48.806423611111114 31.031436011904756  49.28385416666667 32.99386160714286  C 49.761284722222214 34.956287202380956  50 37.155877976190474  50 39.59263392857143  C 50 42.457217261904766  48.91493055555555 44.907924107142854  46.74479166666667 46.944754464285715  C 44.574652777777786 48.98158482142857  41.95963541666667 50  38.89973958333333 50  L 11.100260416666668 50  C 8.040364583333332 50  5.425347222222223 48.98158482142857  3.2552083333333335 46.944754464285715  C 1.0850694444444442 44.907924107142854  0 42.457217261904766  0 39.59263392857143  C 0 37.155877976190474  0.23871527777777776 34.956287202380956  0.7161458333333333 32.99386160714286  C 1.193576388888889 31.031436011904756  1.7903645833333333 29.43173363095238  2.506510416666667 28.194754464285715  C 3.22265625 26.957775297619047  4.085286458333334 25.883556547619047  5.094401041666666 24.972098214285715  C 6.103515625 24.06063988095238  7.069227430555556 23.38169642857143  7.991536458333333 22.935267857142854  C 8.913845486111112 22.488839285714285  9.88498263888889 22.135416666666664  10.904947916666668 21.875  C 9.190538194444446 19.549851190476186  8.333333333333332 17.020089285714285  8.333333333333332 14.285714285714285  C 8.333333333333332 12.351190476190471  8.772786458333332 10.50502232142857  9.651692708333332 8.74720982142857  C 10.530598958333332 6.989397321428569  11.71875 5.46875  13.216145833333334 4.185267857142855  C 14.713541666666666 2.9017857142857153  16.487630208333336 1.883370535714285  18.538411458333336 1.1300223214285698  C 20.589192708333336 0.37667410714285476  22.743055555555557 0  25 0  C 27.256944444444446 0  29.410807291666668 0.37667410714285476  31.461588541666668 1.1300223214285698  C 33.51236979166667 1.883370535714285  35.28645833333333 2.9017857142857153  36.78385416666667 4.185267857142855  C 38.28125 5.46875  39.46940104166667 6.989397321428569  40.34830729166667 8.74720982142857  C 41.22721354166667 10.50502232142857  41.66666666666667 12.351190476190471  41.66666666666667 14.285714285714285  Z M 33.837890625 6.710379464285715  C 31.396484375000007 4.617745535714285  28.450520833333336 3.57142857142857  25 3.57142857142857  C 21.549479166666664 3.57142857142857  18.603515625 4.617745535714285  16.162109375 6.710379464285715  C 13.720703125 8.803013392857146  12.5 11.328125  12.5 14.285714285714285  C 12.5 17.24330357142857  13.720703125 19.76841517857143  16.162109375 21.861049107142854  C 18.603515625 23.953683035714285  21.549479166666664 25  25 25  C 28.450520833333336 25  31.396484375000007 23.953683035714285  33.837890625 21.861049107142854  C 36.279296875 19.76841517857143  37.5 17.24330357142857  37.5 14.285714285714285  C 37.5 11.328125  36.279296875 8.803013392857146  33.837890625 6.710379464285715  Z M 11.100260416666668 46  L 38.89973958333333 46  C 40.80946180555556 46.42857142857143  42.44249131944445 45.76357886904762  43.798828125 44.43359375  C 45.15516493055556 43.10360863095238  45.83333333333333 41.48995535714286  45.83333333333333 39.59263392857143  C 45.83333333333333 35.1469494047619  44.98155381944445 31.640625  43.27799479166667 29.073660714285715  C 41.57443576388889 26.50669642857143  39.12760416666667 25.158110119047617  35.9375 25.027901785714285  C 32.79079861111111 27.390252976190478  29.14496527777778 28.57142857142857  25 28.57142857142857  C 20.855034722222225 28.57142857142857  17.209201388888893 27.390252976190478  14.0625 25.027901785714285  C 10.872395833333332 25.158110119047617  8.425564236111112 26.50669642857143  6.722005208333333 29.073660714285715  C 5.018446180555556 31.640625  4.166666666666666 35.1469494047619  4.166666666666666 39.59263392857143  C 4.166666666666666 41.48995535714286  4.844835069444445 43.10360863095238  6.201171875 44.43359375  C 7.557508680555556 45.76357886904762  9.190538194444446 46.42857142857143  11.100260416666668 46  Z " fill-rule="nonzero" fill="#333333" stroke="none" transform="matrix(1 0 0 1 1435 19 )" />
  </g>
</svg>