<?xml version="1.0" encoding="utf-8"?>
<svg version="1.1" xmlns:xlink="http://www.w3.org/1999/xlink" width="40px" height="40px" xmlns="http://www.w3.org/2000/svg">
  <g transform="matrix(1 0 0 1 -130 -1614 )">
    <path d="M 24.713541666666664 24.71354166666667  C 26.015625 23.41145833333333  26.666666666666664 21.84027777777778  26.666666666666664 20  C 26.666666666666664 18.159722222222218  26.015625 16.588541666666664  24.713541666666664 15.286458333333336  C 23.411458333333336 13.984375  21.840277777777782 13.333333333333336  20 13.333333333333336  C 18.15972222222222 13.333333333333336  16.588541666666668 13.984375  15.286458333333332 15.286458333333336  C 13.984375 16.588541666666664  13.333333333333332 18.159722222222218  13.333333333333332 20  C 13.333333333333332 21.84027777777778  13.984375 23.41145833333333  15.286458333333332 24.71354166666667  C 16.588541666666668 26.015625  18.15972222222222 26.66666666666667  20 26.66666666666667  C 21.840277777777782 26.66666666666667  23.411458333333336 26.015625  24.713541666666664 24.71354166666667  Z M 27.265625 12.734375  C 29.262152777777782 14.730902777777771  30.260416666666664 17.15277777777777  30.260416666666664 20  C 30.260416666666664 22.84722222222222  29.262152777777782 25.26909722222222  27.265625 27.265625  C 25.26909722222222 29.26215277777778  22.84722222222222 30.260416666666664  20 30.260416666666664  C 17.15277777777778 30.260416666666664  14.730902777777779 29.26215277777778  12.734375 27.265625  C 10.737847222222223 25.26909722222222  9.739583333333334 22.84722222222222  9.739583333333334 20  C 9.739583333333334 17.15277777777777  10.737847222222223 14.730902777777771  12.734375 12.734375  C 14.730902777777779 10.737847222222218  17.15277777777778 9.739583333333336  20 9.739583333333336  C 22.84722222222222 9.739583333333336  25.26909722222222 10.737847222222218  27.265625 12.734375  Z M 32.369791666666664 7.630208333333335  C 32.838541666666664 8.098958333333336  33.072916666666664 8.663194444444443  33.072916666666664 9.322916666666664  C 33.072916666666664 9.98263888888889  32.838541666666664 10.546875  32.369791666666664 11.015625  C 31.901041666666664 11.484375  31.336805555555557 11.71875  30.677083333333336 11.71875  C 30.01736111111111 11.71875  29.453125 11.484375  28.984375 11.015625  C 28.515625 10.546875  28.28125 9.98263888888889  28.28125 9.322916666666664  C 28.28125 8.663194444444443  28.515625 8.098958333333336  28.984375 7.630208333333335  C 29.453125 7.161458333333335  30.01736111111111 6.927083333333335  30.677083333333336 6.927083333333335  C 31.336805555555557 6.927083333333335  31.901041666666664 7.161458333333335  32.369791666666664 7.630208333333335  Z M 21.9921875 3.580729166666665  C 20.785590277777782 3.5894097222222188  20.121527777777782 3.59375  20 3.59375  C 19.87847222222222 3.59375  19.21440972222222 3.5894097222222188  18.0078125 3.580729166666665  C 16.80121527777778 3.572048611111107  15.885416666666668 3.572048611111107  15.260416666666668 3.580729166666665  C 14.635416666666668 3.5894097222222188  13.797743055555555 3.6154513888888884  12.747395833333332 3.658854166666665  C 11.697048611111114 3.702256944444442  10.802951388888891 3.7890625  10.065104166666668 3.919270833333335  C 9.327256944444445 4.049479166666665  8.706597222222223 4.210069444444442  8.203125 4.401041666666665  C 7.3350694444444455 4.748263888888888  6.571180555555555 5.251736111111107  5.911458333333334 5.911458333333335  C 5.251736111111112 6.571180555555554  4.748263888888889 7.335069444444442  4.401041666666667 8.203125  C 4.210069444444445 8.706597222222218  4.049479166666667 9.327256944444443  3.919270833333333 10.065104166666664  C 3.7890625 10.80295138888889  3.7022569444444446 11.697048611111107  3.658854166666667 12.747395833333336  C 3.615451388888889 13.797743055555554  3.5894097222222228 14.635416666666664  3.580729166666667 15.260416666666664  C 3.5720486111111116 15.885416666666664  3.5720486111111116 16.80121527777777  3.580729166666667 18.0078125  C 3.5894097222222228 19.214409722222218  3.59375 19.878472222222218  3.59375 20  C 3.59375 20.12152777777778  3.5894097222222228 20.78559027777778  3.580729166666667 21.9921875  C 3.5720486111111116 23.19878472222222  3.5720486111111116 24.11458333333333  3.580729166666667 24.73958333333333  C 3.5894097222222228 25.36458333333333  3.615451388888889 26.202256944444436  3.658854166666667 27.25260416666667  C 3.7022569444444446 28.302951388888886  3.7890625 29.197048611111107  3.919270833333333 29.93489583333333  C 4.049479166666667 30.672743055555554  4.210069444444445 31.29340277777777  4.401041666666667 31.796875  C 4.748263888888889 32.66493055555556  5.251736111111112 33.42881944444444  5.911458333333334 34.088541666666664  C 6.571180555555555 34.748263888888886  7.3350694444444455 35.251736111111114  8.203125 35.598958333333336  C 8.706597222222223 35.78993055555556  9.327256944444445 35.950520833333336  10.065104166666668 36.080729166666664  C 10.802951388888891 36.2109375  11.697048611111114 36.29774305555556  12.747395833333332 36.341145833333336  C 13.797743055555555 36.384548611111114  14.635416666666668 36.41059027777778  15.260416666666668 36.419270833333336  C 15.885416666666668 36.427951388888886  16.80121527777778 36.427951388888886  18.0078125 36.419270833333336  C 19.21440972222222 36.41059027777778  19.87847222222222 36.40625  20 36.40625  C 20.121527777777782 36.40625  20.785590277777782 36.41059027777778  21.9921875 36.419270833333336  C 23.19878472222222 36.427951388888886  24.114583333333336 36.427951388888886  24.739583333333336 36.419270833333336  C 25.364583333333336 36.41059027777778  26.202256944444446 36.384548611111114  27.252604166666664 36.341145833333336  C 28.302951388888893 36.29774305555556  29.19704861111111 36.2109375  29.934895833333336 36.080729166666664  C 30.672743055555557 35.950520833333336  31.293402777777782 35.78993055555556  31.796875 35.598958333333336  C 32.66493055555556 35.251736111111114  33.42881944444444 34.748263888888886  34.088541666666664 34.088541666666664  C 34.74826388888889 33.42881944444444  35.251736111111114 32.66493055555556  35.598958333333336 31.796875  C 35.78993055555556 31.29340277777777  35.950520833333336 30.672743055555554  36.080729166666664 29.93489583333333  C 36.2109375 29.197048611111107  36.29774305555556 28.302951388888886  36.341145833333336 27.25260416666667  C 36.384548611111114 26.202256944444436  36.41059027777778 25.36458333333333  36.419270833333336 24.73958333333333  C 36.42795138888889 24.11458333333333  36.42795138888889 23.19878472222222  36.419270833333336 21.9921875  C 36.41059027777778 20.78559027777778  36.40625 20.12152777777778  36.40625 20  C 36.40625 19.878472222222218  36.41059027777778 19.214409722222218  36.419270833333336 18.0078125  C 36.42795138888889 16.80121527777777  36.42795138888889 15.885416666666664  36.419270833333336 15.260416666666664  C 36.41059027777778 14.635416666666664  36.384548611111114 13.797743055555554  36.341145833333336 12.747395833333336  C 36.29774305555556 11.697048611111107  36.2109375 10.80295138888889  36.080729166666664 10.065104166666664  C 35.950520833333336 9.327256944444443  35.78993055555556 8.706597222222218  35.598958333333336 8.203125  C 35.251736111111114 7.335069444444442  34.74826388888889 6.571180555555554  34.088541666666664 5.911458333333335  C 33.42881944444444 5.251736111111107  32.66493055555556 4.748263888888888  31.796875 4.401041666666665  C 31.293402777777782 4.210069444444442  30.672743055555557 4.049479166666665  29.934895833333336 3.919270833333335  C 29.19704861111111 3.7890625  28.302951388888893 3.702256944444442  27.252604166666664 3.658854166666665  C 26.202256944444446 3.6154513888888884  25.364583333333336 3.5894097222222188  24.739583333333336 3.580729166666665  C 24.114583333333336 3.572048611111107  23.19878472222222 3.572048611111107  21.9921875 3.580729166666665  Z M 39.869791666666664 11.744791666666664  C 39.95659722222222 13.272569444444443  40 16.024305555555554  40 20  C 40 23.975694444444446  39.95659722222222 26.727430555555554  39.869791666666664 28.25520833333333  C 39.69618055555556 31.866319444444446  38.619791666666664 34.661458333333336  36.640625 36.640625  C 34.661458333333336 38.619791666666664  31.866319444444446 39.69618055555556  28.255208333333336 39.869791666666664  C 26.727430555555557 39.95659722222222  23.975694444444446 40  20 40  C 16.024305555555557 40  13.272569444444445 39.95659722222222  11.744791666666668 39.869791666666664  C 8.133680555555557 39.69618055555556  5.338541666666668 38.619791666666664  3.359375 36.640625  C 1.3802083333333335 34.661458333333336  0.3038194444444445 31.866319444444446  0.13020833333333334 28.25520833333333  C 0.04340277777777777 26.727430555555554  0 23.975694444444446  0 20  C 0 16.024305555555554  0.04340277777777777 13.272569444444443  0.13020833333333334 11.744791666666664  C 0.3038194444444445 8.133680555555554  1.3802083333333335 5.338541666666665  3.359375 3.359375  C 5.338541666666668 1.3802083333333348  8.133680555555557 0.303819444444442  11.744791666666668 0.1302083333333348  C 13.272569444444445 0.04340277777777235  16.024305555555557 0  20 0  C 23.975694444444446 0  26.727430555555557 0.04340277777777235  28.255208333333336 0.1302083333333348  C 31.866319444444446 0.303819444444442  34.661458333333336 1.3802083333333348  36.640625 3.359375  C 38.619791666666664 5.338541666666665  39.69618055555556 8.133680555555554  39.869791666666664 11.744791666666664  Z " fill-rule="nonzero" fill="#ffffff" stroke="none" transform="matrix(1 0 0 1 130 1614 )" />
  </g>
</svg>