<?xml version="1.0" encoding="utf-8"?>
<svg version="1.1" xmlns:xlink="http://www.w3.org/1999/xlink" width="40px" height="40px" xmlns="http://www.w3.org/2000/svg">
  <g transform="matrix(1 0 0 1 -83 -1614 )">
    <path d="M 2.2135416666666665 0  L 37.786458333333336 0  C 38.39409722222223 0  38.91493055555556 0.2170138888888884  39.348958333333336 0.6510416666666652  C 39.78298611111111 1.085069444444442  40 1.6059027777777724  40 2.213541666666665  L 40 37.786458333333336  C 40 38.39409722222222  39.78298611111111 38.91493055555556  39.348958333333336 39.348958333333336  C 38.91493055555556 39.782986111111114  38.39409722222223 40  37.786458333333336 40  L 27 40  L 27 24.50520833333333  L 32.786458333333336 24.50520833333333  L 33.567708333333336 18.463541666666664  L 27.604166666666664 18.463541666666664  L 27.604166666666664 14.609375  C 27.604166666666664 13.637152777777771  27.80815972222223 12.907986111111107  28.216145833333336 12.421875  C 28.624131944444446 11.93576388888889  29.418402777777782 11.692708333333336  30.598958333333336 11.692708333333336  L 33.776041666666664 11.666666666666664  L 33.776041666666664 6.276041666666665  C 32.682291666666664 6.119791666666665  31.137152777777782 6.041666666666665  29.140625 6.041666666666665  C 26.779513888888893 6.041666666666665  24.891493055555557 6.736111111111107  23.4765625 8.125  C 22.061631944444446 9.51388888888889  21.354166666666664 11.475694444444443  21.354166666666664 14.010416666666664  L 21.354166666666664 18.463541666666664  L 16.145833333333332 18.463541666666664  L 16.145833333333332 24.50520833333333  L 21 24.50520833333333  L 21 40  L 2.2135416666666665 40  C 1.605902777777778 40  1.0850694444444446 39.782986111111114  0.6510416666666667 39.348958333333336  C 0.21701388888888884 38.91493055555556  0 38.39409722222222  0 37.786458333333336  L 0 2.213541666666665  C 0 1.6059027777777724  0.21701388888888884 1.085069444444442  0.6510416666666667 0.6510416666666652  C 1.0850694444444446 0.2170138888888884  1.605902777777778 0  2.2135416666666665 0  Z " fill-rule="nonzero" fill="#ffffff" stroke="none" transform="matrix(1 0 0 1 83 1614 )" />
  </g>
</svg>