<?xml version="1.0" encoding="utf-8"?>
<svg version="1.1" xmlns:xlink="http://www.w3.org/1999/xlink" width="40px" height="40px" xmlns="http://www.w3.org/2000/svg">
  <g transform="matrix(1 0 0 1 -37 -1614 )">
    <path d="M 35.27918781725888 6.312500000000001  C 36.85279187817259 6.104166666666666  38.4263959390863 5.583333333333327  40 4.750000000000001  C 38.866328257191206 6.7916666666666625  37.49576988155668 8.53125  35.888324873096444 9.968750000000002  C 35.90524534686971 10.260416666666664  35.91370558375635 10.697916666666663  35.91370558375635 11.281249999999998  C 35.91370558375635 13.989583333333329  35.5922165820643 16.69270833333333  34.9492385786802 19.390625  C 34.30626057529611 22.088541666666664  33.32910321489002 24.677083333333336  32.01776649746193 27.15625  C 30.706429780033844 29.635416666666664  29.14551607445009 31.828125  27.33502538071066 33.734375  C 25.524534686971236 35.640625  23.341793570219966 37.161458333333336  20.786802030456855 38.296875  C 18.23181049069374 39.432291666666664  15.499153976311339 40  12.588832487309645 40  C 8.003384094754654 40  3.807106598984771 38.489583333333336  0 35.46875  C 0.5922165820642981 35.552083333333336  1.2521150592216586 35.59375  1.9796954314720814 35.59375  C 5.786802030456855 35.59375  9.179357021996616 34.15625  12.157360406091371 31.28125  C 10.380710659898478 31.23958333333333  8.790186125211507 30.56770833333333  7.385786802030458 29.265625  C 5.981387478849408 27.963541666666664  5.016920473773267 26.30208333333333  4.49238578680203 24.28125  C 5.050761421319797 24.385416666666664  5.5668358714044 24.4375  6.040609137055838 24.4375  C 6.768189509306261 24.4375  7.4873096446700504 24.322916666666664  8.197969543147208 24.09375  C 6.302876480541456 23.614583333333332  4.7335025380710665 22.453125  3.489847715736041 20.609375  C 2.246192893401015 18.765625  1.624365482233503 16.625  1.6243654822335025 14.187500000000002  L 1.6243654822335025 14.0625  C 2.7749576988155673 14.854166666666666  4.01015228426396 15.281249999999996  5.32994923857868 15.343749999999998  C 4.213197969543147 14.42708333333333  3.3248730964467006 13.229166666666664  2.66497461928934 11.749999999999998  C 2.00507614213198 10.270833333333327  1.6751269035532994 8.666666666666663  1.6751269035532994 6.937500000000001  C 1.6751269035532994 5.104166666666665  2.047377326565144 3.4062500000000018  2.7918781725888326 1.8437500000000018  C 4.8392554991539765 4.947916666666665  7.330795262267344 7.432291666666666  10.266497461928934 9.296875  C 13.202199661590527 11.161458333333334  16.34517766497462 12.197916666666666  19.695431472081218 12.40625  C 19.560067681895095 11.61458333333333  19.492385786802032 10.843749999999996  19.492385786802032 10.09375  C 19.492385786802032 7.302083333333327  20.29187817258883 4.921875  21.890862944162436 2.953125000000001  C 23.48984771573604 0.9843750000000018  25.423011844331644 0  27.690355329949238 0  C 30.059221658206432 0  32.055837563451774 1.0625000000000018  33.680203045685275 3.187500000000001  C 35.524534686971236 2.749999999999999  37.25888324873096 1.9375000000000009  38.88324873096447 0.7500000000000018  C 38.25719120135364 3.1458333333333277  37.05583756345178 5  35.27918781725888 6.312500000000001  Z " fill-rule="nonzero" fill="#ffffff" stroke="none" transform="matrix(1 0 0 1 37 1614 )" />
  </g>
</svg>