<?xml version="1.0" encoding="utf-8"?>
<svg version="1.1" xmlns:xlink="http://www.w3.org/1999/xlink" width="40px" height="40px" xmlns="http://www.w3.org/2000/svg">
  <g transform="matrix(1 0 0 1 -178 -1614 )">
    <path d="M 1 12.997275204359674  L 9 12.997275204359674  L 9 40  L 1 40  L 1 12.997275204359674  Z M 8.307291666666666 1.3215258855585832  C 9.175347222222223 2.202543142597637  9.618055555555557 3.3151680290644814  9.635416666666666 4.659400544959129  C 9.652777777777779 5.985467756584919  9.214409722222223 7.0935513169845565  8.3203125 7.983651226158037  C 7.426215277777778 8.873751135331513  6.25 9.318801089918258  4.791666666666667 9.318801089918258  L 4.739583333333333 9.318801089918258  C 3.3159722222222228 9.318801089918258  2.1701388888888893 8.873751135331513  1.3020833333333335 7.983651226158037  C 0.4340277777777777 7.0935513169845565  0 5.985467756584919  0 4.659400544959129  C 0 3.3151680290644814  0.44704861111111105 2.202543142597637  1.3411458333333335 1.3215258855585832  C 2.235243055555556 0.44050862851952477  3.4027777777777786 0  4.84375 0  C 6.284722222222222 0  7.439236111111112 0.44050862851952477  8.307291666666666 1.3215258855585832  Z M 37.291666666666664 15.463215258855584  C 39.09722222222222 17.524977293369663  40 20.544959128065393  40 24.52316076294278  L 40 40  L 31 40  L 31 25.55858310626703  C 31.432291666666664 23.651226158038146  31.080729166666664 22.15712988192552  30.377604166666664 21.076294277929154  C 29.674479166666664 19.995458673932784  28.576388888888893 19.455040871934607  27.083333333333336 19.455040871934607  C 25.989583333333336 19.455040871934607  25.07378472222222 19.768392370572204  24.3359375 20.39509536784741  C 23.598090277777782 21.021798365122617  23.046875 21.798365122615806  22.682291666666664 22.724795640326974  C 22.491319444444446 23.26975476839237  22.395833333333336 24.005449591280655  22 24.931880108991827  L 22 40  L 13.828125 40  C 13.862847222222223 32.752043596730246  13.880208333333332 26.8755676657584  13.880208333333332 22.37057220708447  C 13.880208333333332 17.865576748410533  13.871527777777779 15.177111716621251  13.854166666666668 14.30517711171662  L 13.828125 12.997275204359674  L 22.395833333333336 12.997275204359674  L 22.395833333333336 16.920980926430516  L 22.34375 16.920980926430516  C 22.69097222222222 16.339691189827427  23.046875 15.831062670299726  23.411458333333336 15.395095367847414  C 23.776041666666664 14.959128065395095  24.266493055555557 14.486830154405084  24.8828125 13.978201634877383  C 25.499131944444446 13.469573115349679  26.254340277777782 13.074477747502268  27.1484375 12.79291553133515  C 28.04253472222223 12.51135331516803  29.036458333333336 12.370572207084468  30.130208333333336 12.370572207084468  C 33.098958333333336 12.370572207084468  35.486111111111114 13.401453224341505  37.291666666666664 15.463215258855584  Z " fill-rule="nonzero" fill="#ffffff" stroke="none" transform="matrix(1 0 0 1 178 1614 )" />
  </g>
</svg>