<?xml version="1.0" encoding="utf-8"?>
<svg version="1.1" xmlns:xlink="http://www.w3.org/1999/xlink" width="58px" height="56px" xmlns="http://www.w3.org/2000/svg">
  <g transform="matrix(1 0 0 1 -1428 -35 )">
    <path d="M 48.333333333333336 16  C 48.333333333333336 19.0625  47.33897569444445 21.89583333333333  45.350260416666664 24.5  C 46.53342013888889 24.791666666666664  47.659939236111114 25.1875  48.729817708333336 25.687499999999996  C 49.79969618055556 26.1875  50.919921875 26.947916666666664  52.090494791666664 27.96875  C 53.261067708333336 28.989583333333332  54.26171875 30.192708333333332  55.092447916666664 31.578125  C 55.923177083333336 32.963541666666664  56.61545138888889 34.75520833333333  57.169270833333336 36.953125  C 57.72309027777777 39.15104166666667  58 41.614583333333336  58 44.34375  C 58 47.55208333333334  56.74131944444444 50.296875  54.223958333333336 52.578125  C 51.70659722222223 54.859375  48.673177083333336 56  45.123697916666664 56  L 12.876302083333334 56  C 9.326822916666666 56  6.293402777777779 54.859375  3.776041666666667 52.578125  C 1.2586805555555554 50.296875  0 47.55208333333334  0 44.34375  C 0 41.614583333333336  0.2769097222222222 39.15104166666667  0.8307291666666666 36.953125  C 1.3845486111111112 34.75520833333333  2.0768229166666665 32.963541666666664  2.9075520833333335 31.578125  C 3.73828125 30.192708333333332  4.738932291666667 28.989583333333332  5.909505208333333 27.96875  C 7.080078125 26.947916666666664  8.200303819444446 26.1875  9.270182291666666 25.687499999999996  C 10.34006076388889 25.1875  11.466579861111112 24.791666666666664  12.649739583333334 24.5  C 10.661024305555557 21.89583333333333  9.666666666666666 19.0625  9.666666666666666 16  C 9.666666666666666 13.833333333333329  10.176432291666666 11.765624999999998  11.195963541666666 9.796874999999998  C 12.215494791666666 7.828124999999998  13.59375 6.125  15.330729166666668 4.687499999999997  C 17.067708333333332 3.250000000000001  19.125651041666668 2.109374999999999  21.504557291666668 1.2656249999999982  C 23.883463541666668 0.42187499999999734  26.381944444444446 0  29 0  C 31.61805555555556 0  34.116536458333336 0.42187499999999734  36.495442708333336 1.2656249999999982  C 38.874348958333336 2.109374999999999  40.932291666666664 3.250000000000001  42.669270833333336 4.687499999999997  C 44.40625 6.125  45.784505208333336 7.828124999999998  46.804036458333336 9.796874999999998  C 47.823567708333336 11.765624999999998  48.333333333333336 13.833333333333329  48.333333333333336 16  Z M 39.251953125 7.515625000000001  C 36.41992187500001 5.171874999999999  33.00260416666667 3.9999999999999982  29 3.9999999999999982  C 24.997395833333332 3.9999999999999982  21.580078125 5.171874999999999  18.748046875 7.515625000000001  C 15.916015625 9.859375000000004  14.5 12.6875  14.5 16  C 14.5 19.3125  15.916015625 22.140625  18.748046875 24.484374999999996  C 21.580078125 26.828125  24.997395833333332 28  29 28  C 33.00260416666667 28  36.41992187500001 26.828125  39.251953125 24.484374999999996  C 42.083984375 22.140625  43.5 19.3125  43.5 16  C 43.5 12.6875  42.083984375 9.859375000000004  39.251953125 7.515625000000001  Z M 12.876302083333334 52  L 45.123697916666664 52  C 47.33897569444445 52  49.23328993055556 51.255208333333336  50.806640625 49.765625  C 52.37999131944445 48.276041666666664  53.166666666666664 46.46875  53.166666666666664 44.34375  C 53.166666666666664 39.36458333333333  52.17860243055556 35.4375  50.202473958333336 32.5625  C 48.226345486111114 29.6875  45.388020833333336 28.17708333333333  41.6875 28.03125  C 38.037326388888886 30.677083333333336  33.80815972222222 32  29 32  C 24.19184027777778 32  19.962673611111114 30.677083333333336  16.3125 28.03125  C 12.611979166666666 28.17708333333333  9.77365451388889 29.6875  7.797526041666666 32.5625  C 5.821397569444445 35.4375  4.833333333333333 39.36458333333333  4.833333333333333 44.34375  C 4.833333333333333 46.46875  5.620008680555556 48.276041666666664  7.193359375 49.765625  C 8.766710069444446 51.255208333333336  10.661024305555557 52  12.876302083333334 52  Z " fill-rule="nonzero" fill="#99251d" stroke="none" fill-opacity="0.996078431372549" transform="matrix(1 0 0 1 1428 35 )" />
  </g>
</svg>