<?xml version="1.0" encoding="utf-8"?>
<svg version="1.1" xmlns:xlink="http://www.w3.org/1999/xlink" width="147px" height="147px" xmlns="http://www.w3.org/2000/svg">
  <g transform="matrix(1 0 0 1 -661 -101 )">
    <path d="M 661 101  L 808 101  L 808 248  L 661 248  L 661 101  " fill-rule="nonzero" fill="#cccccc" stroke="none" />
    <path d="M 671 111  L 798 111  L 798 238  L 671 238  L 671 111  " fill-rule="nonzero" fill="#ffffff" stroke="none" />
    <path d="M 748.465 145.1  C 742.291 145.1  737.44 140.249  737.44 134.075  C 737.44 127.901  742.291 123.05  748.465 123.05  C 754.639 123.05  759.49 127.901  759.49 134.075  C 759.49 140.249  754.639 145.1  748.465 145.1  " fill-rule="nonzero" fill="#cccccc" stroke="none" />
    <path d="M 675 235  L 675 169  L 705 139  L 747 163  L 771 157  L 795 163  L 795 235  L 675 235  " fill-rule="nonzero" fill="#169bd5" stroke="none" />
  </g>
</svg>