<?xml version="1.0" encoding="utf-8"?>
<svg version="1.1" xmlns:xlink="http://www.w3.org/1999/xlink" width="99px" height="99px" xmlns="http://www.w3.org/2000/svg">
  <g transform="matrix(1 0 0 1 -103 -644 )">
    <path d="M 87.31598984771573 15.623437500000001  C 91.21065989847716 15.107812499999998  95.10532994923858 13.818749999999984  99 11.756250000000001  C 96.19416243654824 16.80937499999999  92.8020304568528 21.11484375  88.82360406091371 24.672656250000003  C 88.86548223350255 25.394531249999996  88.88642131979695 26.47734374999999  88.88642131979695 27.921093749999997  C 88.88642131979695 34.62421874999999  88.09073604060914 41.31445312499999  86.4993654822335 47.991796875  C 84.90799492385787 54.66914062499999  82.48953045685279 61.07578125  79.24397208121827 67.21171875  C 75.99841370558376 73.34765625  72.13515228426397 78.774609375  67.65418781725889 83.49257812500001  C 63.17322335025381 88.21054687499999  57.77093908629442 91.974609375  51.44733502538072 94.78476562499999  C 45.12373096446701 97.594921875  38.360406091370564 99  31.15736040609137 99  C 19.80837563451777 99  9.422588832487309 95.26171875  0 87.78515625  C 1.4657360406091378 87.99140625000001  3.0989847715736047 88.09453125  4.899746192893401 88.09453125  C 14.322335025380715 88.09453125  22.718908629441625 84.53671874999999  30.089467005076145 77.42109375  C 25.692258883248734 77.31796874999999  21.75571065989848 75.65507812499999  18.279822335025383 72.432421875  C 14.803934010152284 69.20976562499999  12.416878172588834 65.09765624999999  11.118654822335026 60.09609375  C 12.500634517766498 60.35390625  13.777918781725893 60.4828125  14.9505076142132 60.4828125  C 16.751269035532996 60.4828125  18.531091370558375 60.19921874999999  20.28997461928934 59.63203125  C 15.599619289340104 58.446093749999996  11.715418781725889 55.571484375  8.637373096446701 51.008203125  C 5.559327411167513 46.444921875  4.02030456852792 41.146875  4.020304568527918 35.1140625  L 4.020304568527918 34.8046875  C 6.868020304568529 36.7640625  9.925126903553299 37.821093749999996  13.191624365482234 37.97578125  C 10.427664974619288 35.70703124999999  8.229060913705585 32.74218749999999  6.595812182741117 29.081249999999997  C 4.962563451776649 25.420312499999984  4.145939086294416 21.44999999999999  4.145939086294416 17.1703125  C 4.145939086294416 12.632812499999996  5.067258883248732 8.430468750000005  6.909898477157361 4.563281250000005  C 11.977157360406093 12.246093749999996  18.143718274111677 18.394921874999998  25.409581218274113 23.009765625  C 32.67544416243655 27.624609375000002  40.454314720812185 30.189843749999998  48.746192893401016 30.70546875  C 48.41116751269036 28.746093749999993  48.243654822335024 26.83828124999999  48.243654822335024 24.98203125  C 48.243654822335024 18.072656249999984  50.222398477157356 12.181640625  54.179885786802025 7.308984375000002  C 58.137373096446694 2.4363281250000046  62.92195431472082 0  68.53362944162437 0  C 74.39657360406092 0  79.33819796954315 2.6296875000000046  83.35850253807106 7.889062500000002  C 87.9232233502538 6.806249999999998  92.21573604060913 4.795312500000002  96.23604060913705 1.8562500000000044  C 94.68654822335026 7.785937499999986  91.71319796954316 12.375  87.31598984771573 15.623437500000001  Z " fill-rule="nonzero" fill="#333333" stroke="none" transform="matrix(1 0 0 1 103 644 )" />
  </g>
</svg>