<?xml version="1.0" encoding="utf-8"?>
<svg version="1.1" xmlns:xlink="http://www.w3.org/1999/xlink" width="100px" height="100px" xmlns="http://www.w3.org/2000/svg">
  <g transform="matrix(1 0 0 1 -217 -644 )">
    <path d="M 5.533854166666666 0  L 94.46614583333334 0  C 95.98524305555557 0  97.2873263888889 0.542534722222221  98.37239583333334 1.627604166666663  C 99.45746527777777 2.712673611111105  100 4.01475694444443  100 5.5338541666666625  L 100 94.46614583333334  C 100 95.98524305555554  99.45746527777777 97.28732638888889  98.37239583333334 98.37239583333334  C 97.2873263888889 99.45746527777779  95.98524305555557 100  94.46614583333334 100  L 69 100  L 69 61  L 81.96614583333334 61  L 83.91927083333334 47  L 69 47  L 69 36.5234375  C 69.01041666666666 34.09288194444443  69.52039930555557 32.26996527777777  70.54036458333334 31.0546875  C 71.56032986111111 29.83940972222222  73.54600694444446 29.231770833333336  76.49739583333334 29.231770833333336  L 84 29.166666666666664  L 84 15.690104166666663  C 81.70572916666666 15.299479166666663  77.84288194444446 15.104166666666663  72.8515625 15.104166666666663  C 66.94878472222223 15.104166666666663  62.22873263888889 16.840277777777768  58.69140625 20.3125  C 55.154079861111114 23.78472222222222  53.385416666666664 28.689236111111104  53 35.026041666666664  L 53 47  L 41 47  L 41 61  L 53 61  L 53 100  L 5.533854166666666 100  C 4.014756944444445 100  2.7126736111111116 99.45746527777779  1.6276041666666667 98.37239583333334  C 0.5425347222222221 97.28732638888889  0 95.98524305555554  0 94.46614583333334  L 0 5.5338541666666625  C 0 4.01475694444443  0.5425347222222221 2.712673611111105  1.6276041666666667 1.627604166666663  C 2.7126736111111116 0.542534722222221  4.014756944444445 0  5.533854166666666 0  Z " fill-rule="nonzero" fill="#333333" stroke="none" transform="matrix(1 0 0 1 217 644 )" />
  </g>
</svg>