<?xml version="1.0" encoding="utf-8"?>
<svg version="1.1" xmlns:xlink="http://www.w3.org/1999/xlink" width="100px" height="99px" xmlns="http://www.w3.org/2000/svg">
  <g transform="matrix(1 0 0 1 -453 -644 )">
    <path d="M 2 33  L 23 33  L 23 99  L 2 99  L 2 33  Z M 20.768229166666664 3.2707765667574935  C 22.938368055555557 5.451294277929152  24.045138888888893 8.20504087193459  24.088541666666664 11.532016348773844  C 24.131944444444446 14.814032697547674  23.036024305555557 17.556539509536776  20.80078125 19.759536784741144  C 18.565538194444446 21.962534059945497  15.625 23.064032697547688  11.979166666666668 23.064032697547688  L 11.848958333333332 23.064032697547688  C 8.289930555555557 23.064032697547688  5.425347222222223 21.962534059945497  3.2552083333333335 19.759536784741144  C 1.0850694444444442 17.556539509536776  0 14.814032697547674  0 11.532016348773844  C 0 8.20504087193459  1.1176215277777777 5.451294277929152  3.3528645833333335 3.2707765667574935  C 5.588107638888889 1.090258855585824  8.506944444444446 0  12.109375 0  C 15.711805555555555 0  18.59809027777778 1.090258855585824  20.768229166666664 3.2707765667574935  Z M 93.22916666666666 38.27145776566757  C 97.74305555555554 43.37431880108992  100 50.84877384196185  100 60.69482288828338  L 100 99  L 78 99  L 78 63.25749318801089  C 78.58072916666666 58.53678474114441  77.70182291666666 54.838896457765664  75.94401041666666 52.16382833787466  C 74.18619791666666 49.48876021798364  71.44097222222223 48.15122615803815  67.70833333333334 48.15122615803815  C 64.97395833333334 48.15122615803815  62.68446180555556 48.92677111716621  60.83984375 50.477861035422336  C 58.99522569444445 52.028950953678475  57.6171875 53.95095367847412  56.705729166666664 56.24386920980926  C 56.228298611111114 57.59264305177111  55.989583333333336 59.41348773841962  56 61.70640326975477  L 56 99  L 34.5703125 99  C 34.65711805555556 81.06130790190736  34.70052083333333 66.51702997275204  34.70052083333333 55.367166212534066  C 34.70052083333333 44.21730245231607  34.67881944444445 37.5633514986376  34.63541666666667 35.405313351498634  L 34.5703125 33  L 55.989583333333336 33  L 55.989583333333336 41.87942779291553  L 55.859375 41.87942779291553  C 56.72743055555556 40.440735694822884  57.6171875 39.18188010899183  58.528645833333336 38.10286103542235  C 59.440104166666664 37.02384196185286  60.66623263888889 35.85490463215258  62.20703125 34.596049046321525  C 63.747829861111114 33.337193460490454  65.63585069444446 32.35933242506812  67.87109375 31.6624659400545  C 70.10633680555557 30.965599455040874  72.59114583333334 30.617166212534055  75.32552083333334 30.617166212534055  C 82.74739583333334 30.617166212534055  88.71527777777779 33.16859673024523  93.22916666666666 38.27145776566757  Z " fill-rule="nonzero" fill="#333333" stroke="none" transform="matrix(1 0 0 1 453 644 )" />
  </g>
</svg>