<?xml version="1.0" encoding="utf-8"?>
<svg version="1.1" xmlns:xlink="http://www.w3.org/1999/xlink" width="99px" height="99px" xmlns="http://www.w3.org/2000/svg">
  <g transform="matrix(1 0 0 1 -334 -644 )">
    <path d="M 61.16601562499999 61.16601562500001  C 64.388671875 57.94335937499999  66 54.0546875  66 49.5  C 66 44.94531249999999  64.388671875 41.05664062499999  61.16601562499999 37.83398437500001  C 57.94335937500001 34.611328125  54.05468750000001 33.00000000000001  49.5 33.00000000000001  C 44.9453125 33.00000000000001  41.056640625 34.611328125  37.833984375 37.83398437500001  C 34.611328125 41.05664062499999  33 44.94531249999999  33 49.5  C 33 54.0546875  34.611328125 57.94335937499999  37.833984375 61.16601562500001  C 41.056640625 64.388671875  44.9453125 66.00000000000001  49.5 66.00000000000001  C 54.05468750000001 66.00000000000001  57.94335937500001 64.388671875  61.16601562499999 61.16601562500001  Z M 67.482421875 31.517578125  C 72.42382812500001 36.458984374999986  74.89453125 42.453124999999986  74.89453125 49.5  C 74.89453125 56.546875  72.42382812500001 62.541015625  67.482421875 67.482421875  C 62.541015625 72.423828125  56.546875 74.89453125  49.5 74.89453125  C 42.453125 74.89453125  36.458984375 72.423828125  31.517578125 67.482421875  C 26.576171875000004 62.541015625  24.10546875 56.546875  24.10546875 49.5  C 24.10546875 42.453124999999986  26.576171875000004 36.458984374999986  31.517578125 31.517578125  C 36.458984375 26.576171874999993  42.453125 24.105468750000004  49.5 24.105468750000004  C 56.546875 24.105468750000004  62.541015625 26.576171874999993  67.482421875 31.517578125  Z M 80.115234375 18.884765625000004  C 81.275390625 20.044921875000004  81.85546875 21.441406249999993  81.85546875 23.074218749999996  C 81.85546875 24.70703125  81.275390625 26.103515625  80.115234375 27.263671875  C 78.955078125 28.423828125  77.55859375 29.00390625  75.92578125 29.00390625  C 74.29296875 29.00390625  72.896484375 28.423828125  71.736328125 27.263671875  C 70.576171875 26.103515625  69.99609375 24.70703125  69.99609375 23.074218749999996  C 69.99609375 21.441406249999993  70.576171875 20.044921875000004  71.736328125 18.884765625000004  C 72.896484375 17.724609375000004  74.29296875 17.144531250000004  75.92578125 17.144531250000004  C 77.55859375 17.144531250000004  78.955078125 17.724609375000004  80.115234375 18.884765625000004  Z M 54.4306640625 8.862304687499996  C 51.44433593750001 8.883789062499991  49.80078125000001 8.89453125  49.5 8.89453125  C 49.19921875 8.89453125  47.5556640625 8.883789062499991  44.5693359375 8.862304687499996  C 41.5830078125 8.84082031249999  39.31640625 8.84082031249999  37.76953125 8.862304687499996  C 36.22265625 8.883789062499991  34.1494140625 8.948242187499998  31.549804687499996 9.055664062499996  C 28.950195312500007 9.163085937499995  26.737304687500004 9.3779296875  24.911132812500004 9.700195312500004  C 23.084960937500004 10.022460937499996  21.548828125000004 10.419921874999995  20.302734375 10.892578124999996  C 18.154296875000004 11.751953124999998  16.263671875 12.99804687499999  14.630859375000002 14.630859375000004  C 12.998046875000002 16.263671874999996  11.751953125 18.154296874999993  10.892578125 20.302734375  C 10.419921875 21.548828124999993  10.0224609375 23.084960937499993  9.7001953125 24.911132812499996  C 9.3779296875 26.7373046875  9.1630859375 28.95019531249999  9.0556640625 31.549804687500004  C 8.9482421875 34.14941406249999  8.883789062500002 36.22265624999999  8.8623046875 37.76953124999999  C 8.840820312500002 39.31640624999999  8.840820312500002 41.583007812499986  8.8623046875 44.5693359375  C 8.883789062500002 47.55566406249999  8.89453125 49.19921874999999  8.89453125 49.5  C 8.89453125 49.80078125  8.883789062500002 51.4443359375  8.8623046875 54.4306640625  C 8.840820312500002 57.4169921875  8.840820312500002 59.68359374999999  8.8623046875 61.23046874999999  C 8.883789062500002 62.77734374999999  8.9482421875 64.85058593749999  9.0556640625 67.45019531250001  C 9.1630859375 70.04980468749999  9.3779296875 72.26269531249999  9.7001953125 74.08886718749999  C 10.0224609375 75.9150390625  10.419921875 77.45117187499999  10.892578125 78.697265625  C 11.751953125 80.845703125  12.998046875000002 82.736328125  14.630859375000002 84.369140625  C 16.263671875 86.001953125  18.154296875000004 87.248046875  20.302734375 88.107421875  C 21.548828125000004 88.580078125  23.084960937500004 88.9775390625  24.911132812500004 89.2998046875  C 26.737304687500004 89.6220703125  28.950195312500007 89.8369140625  31.549804687499996 89.9443359375  C 34.1494140625 90.0517578125  36.22265625 90.11621093750001  37.76953125 90.1376953125  C 39.31640625 90.1591796875  41.5830078125 90.1591796875  44.5693359375 90.1376953125  C 47.5556640625 90.11621093750001  49.19921875 90.10546875  49.5 90.10546875  C 49.80078125000001 90.10546875  51.44433593750001 90.11621093750001  54.4306640625 90.1376953125  C 57.4169921875 90.1591796875  59.68359375000001 90.1591796875  61.23046875000001 90.1376953125  C 62.77734375000001 90.11621093750001  64.8505859375 90.0517578125  67.4501953125 89.9443359375  C 70.04980468750001 89.8369140625  72.2626953125 89.6220703125  74.0888671875 89.2998046875  C 75.9150390625 88.9775390625  77.45117187500001 88.580078125  78.697265625 88.107421875  C 80.845703125 87.248046875  82.736328125 86.001953125  84.369140625 84.369140625  C 86.00195312500001 82.736328125  87.248046875 80.845703125  88.107421875 78.697265625  C 88.580078125 77.45117187499999  88.9775390625 75.9150390625  89.2998046875 74.08886718749999  C 89.6220703125 72.26269531249999  89.8369140625 70.04980468749999  89.9443359375 67.45019531250001  C 90.0517578125 64.85058593749999  90.11621093750001 62.77734374999999  90.1376953125 61.23046874999999  C 90.15917968750001 59.68359374999999  90.15917968750001 57.4169921875  90.1376953125 54.4306640625  C 90.11621093750001 51.4443359375  90.10546875 49.80078125  90.10546875 49.5  C 90.10546875 49.19921874999999  90.11621093750001 47.55566406249999  90.1376953125 44.5693359375  C 90.15917968750001 41.583007812499986  90.15917968750001 39.31640624999999  90.1376953125 37.76953124999999  C 90.11621093750001 36.22265624999999  90.0517578125 34.14941406249999  89.9443359375 31.549804687500004  C 89.8369140625 28.95019531249999  89.6220703125 26.7373046875  89.2998046875 24.911132812499996  C 88.9775390625 23.084960937499993  88.580078125 21.548828124999993  88.107421875 20.302734375  C 87.248046875 18.154296874999993  86.00195312500001 16.263671874999996  84.369140625 14.630859375000004  C 82.736328125 12.99804687499999  80.845703125 11.751953124999998  78.697265625 10.892578124999996  C 77.45117187500001 10.419921874999995  75.9150390625 10.022460937499996  74.0888671875 9.700195312500004  C 72.2626953125 9.3779296875  70.04980468750001 9.163085937499995  67.4501953125 9.055664062499996  C 64.8505859375 8.948242187499998  62.77734375000001 8.883789062499991  61.23046875000001 8.862304687499996  C 59.68359375000001 8.84082031249999  57.4169921875 8.84082031249999  54.4306640625 8.862304687499996  Z M 98.677734375 29.068359374999996  C 98.89257812499999 32.84960937499999  99 39.66015624999999  99 49.5  C 99 59.33984375000001  98.89257812499999 66.150390625  98.677734375 69.93164062499999  C 98.248046875 78.869140625  95.583984375 85.787109375  90.685546875 90.685546875  C 85.787109375 95.583984375  78.869140625 98.248046875  69.931640625 98.677734375  C 66.150390625 98.89257812499999  59.33984375000001 99  49.5 99  C 39.66015625 99  32.849609375 98.89257812499999  29.068359375000004 98.677734375  C 20.130859375000004 98.248046875  13.212890625000002 95.583984375  8.314453125 90.685546875  C 3.4160156250000004 85.787109375  0.7519531250000001 78.869140625  0.322265625 69.93164062499999  C 0.10742187499999999 66.150390625  0 59.33984375000001  0 49.5  C 0 39.66015624999999  0.10742187499999999 32.84960937499999  0.322265625 29.068359374999996  C 0.7519531250000001 20.130859374999996  3.4160156250000004 13.212890624999996  8.314453125 8.314453125  C 13.212890625000002 3.4160156250000036  20.130859375000004 0.7519531249999939  29.068359375000004 0.32226562500000366  C 32.849609375 0.10742187499998657  39.66015625 0  49.5 0  C 59.33984375000001 0  66.150390625 0.10742187499998657  69.931640625 0.32226562500000366  C 78.869140625 0.7519531249999939  85.787109375 3.4160156250000036  90.685546875 8.314453125  C 95.583984375 13.212890624999996  98.248046875 20.130859374999996  98.677734375 29.068359374999996  Z " fill-rule="nonzero" fill="#333333" stroke="none" transform="matrix(1 0 0 1 334 644 )" />
  </g>
</svg>