<?xml version="1.0" encoding="utf-8"?>
<svg version="1.1" xmlns:xlink="http://www.w3.org/1999/xlink" width="39px" height="32px" xmlns="http://www.w3.org/2000/svg">
  <g transform="matrix(1 0 0 1 -1735 -30 )">
    <path d="M 1735 30  L 1774 30  L 1774 62  L 1735 62  L 1735 30  " fill-rule="nonzero" fill="#cccccc" stroke="none" />
    <path d="M 1737 32  L 1772 32  L 1772 60  L 1737 60  L 1737 32  " fill-rule="nonzero" fill="#ffffff" stroke="none" />
    <path d="M 1757.6799999999998 39.599999999999994  C 1756.336 39.599999999999994  1755.28 38.544  1755.28 37.199999999999996  C 1755.28 35.855999999999995  1756.336 34.8  1757.6799999999998 34.8  C 1759.024 34.8  1760.08 35.855999999999995  1760.08 37.199999999999996  C 1760.08 38.544  1759.024 39.599999999999994  1757.6799999999998 39.599999999999994  " fill-rule="nonzero" fill="#cccccc" stroke="none" />
    <path d="M 1738 59  L 1738 44.7  L 1746.25 38.2  L 1757.8 46.2  L 1764.4 42.099999999999994  L 1771 46.2  L 1771 59  L 1738 59  " fill-rule="nonzero" fill="#169bd5" stroke="none" />
  </g>
</svg>