<?xml version="1.0" encoding="utf-8"?>
<svg version="1.1" xmlns:xlink="http://www.w3.org/1999/xlink" width="98px" height="98px" xmlns="http://www.w3.org/2000/svg">
  <g transform="matrix(1 0 0 1 -297 -485 )">
    <path d="M 297 485  L 395 485  L 395 583  L 297 583  L 297 485  " fill-rule="nonzero" fill="#cccccc" stroke="none" />
    <path d="M 304 492  L 388 492  L 388 576  L 304 576  L 304 492  " fill-rule="nonzero" fill="#ffffff" stroke="none" />
    <path d="M 355.30999999999995 514.4  C 351.19399999999996 514.4  347.96 511.16599999999994  347.96 507.04999999999995  C 347.96 502.93399999999997  351.19399999999996 499.7  355.30999999999995 499.7  C 359.42599999999993 499.7  362.65999999999997 502.93399999999997  362.65999999999997 507.04999999999995  C 362.65999999999997 511.16599999999994  359.42599999999993 514.4  355.30999999999995 514.4  " fill-rule="nonzero" fill="#cccccc" stroke="none" />
    <path d="M 307 574  L 307 530.55  L 326.75 510.8  L 354.4 526.6  L 370.2 522.65  L 386 526.6  L 386 574  L 307 574  " fill-rule="nonzero" fill="#169bd5" stroke="none" />
  </g>
</svg>